HIERARCHY
ROOT pelvis
{
  OFFSET 0 100 0
  CHANNELS 6 Xposition Yposition Zposition Zrotation Xrotation Yrotation
  JOINT pelvis_right_femur
  {
    OFFSET -10.78128 -3.44521 -0.5502486
    CHANNELS 3 Zrotation Xrotation Yrotation
    JOINT right_femur_tibia
    {
      OFFSET -0.8047443 -44.0398 -0.1307829
      CHANNELS 3 Zrotation Xrotation Yrotation
      JOINT right_tibia_foot
      {
        OFFSET 3.006224 -47.83518 -5
        CHANNELS 3 Zrotation Xrotation Yrotation
        End Site
        {
          OFFSET 0 -5 15
        }
      }
    }
  }
  JOINT pelvis_left_femur
  {
    OFFSET 10.78128 -3.44521 -0.5502486
    CHANNELS 3 Zrotation Xrotation Yrotation
    JOINT left_femur_tibia
    {
      OFFSET 0.8047443 -44.0398 -0.1307829
      CHANNELS 3 Zrotation Xrotation Yrotation
      JOINT left_tibia_foot
      {
        OFFSET -4.370144 -48.10324 -4.275266
        CHANNELS 3 Zrotation Xrotation Yrotation
        End Site
        {
          OFFSET 0 -5 15
        }
      }
    }
  }
  JOINT pelvis_spine1
  {
    OFFSET 0 6.468898 -3.129235
    CHANNELS 3 Zrotation Xrotation Yrotation
    JOINT spine1
    {
      OFFSET 0 23.15396 4.99043
      CHANNELS 3 Zrotation Xrotation Yrotation
      JOINT spine2
      {
        OFFSET 0 20.79997 -5.064912
        CHANNELS 3 Zrotation Xrotation Yrotation
        JOINT neck
        {
          OFFSET 0 14.38658 9.616178
          CHANNELS 3 Zrotation Xrotation Yrotation
          End Site
          {
            OFFSET 0 20 0
          }
        }
      }
      JOINT right_manubrium
      {
        OFFSET -5.722621 16.35077 3.967754
        CHANNELS 3 Zrotation Xrotation Yrotation
        JOINT right_clavicle
        {
          OFFSET -13.16364 1.694482 -4.693211
          CHANNELS 3 Zrotation Xrotation Yrotation
          JOINT right_humerus
          {
            OFFSET -28.5034 -0.3100689 -2.792744
            CHANNELS 3 Zrotation Xrotation Yrotation
            JOINT right_radius
            {
              OFFSET -25.15693 0.02248979 -1.271978
              CHANNELS 3 Zrotation Xrotation Yrotation
              End Site
              {
                OFFSET -15 0 0
              }
            }
          }
        }
      }
      JOINT left_manubrium
      {
        OFFSET 5.722621 16.35077 3.967754
        CHANNELS 3 Zrotation Xrotation Yrotation
        JOINT left_clavicle
        {
          OFFSET 13.16364 1.694482 -4.693211
          CHANNELS 3 Zrotation Xrotation Yrotation
          JOINT left_humerus
          {
            OFFSET 29.39168 -1.063119 -2.237045
            CHANNELS 3 Zrotation Xrotation Yrotation
            JOINT left_radius
            {
              OFFSET 24.59957 -0.9528479 0.9047498
              CHANNELS 3 Zrotation Xrotation Yrotation
              End Site
              {
                OFFSET 15 -0 -0
              }
            }
          }
        }
      }
    }
  }
}
MOTION
Frames: 15
Frame Time: 0.0416666666667
0 103.5113 0 2.585428 -2.504996 0.2337879 0.7470135 -10.44992 7.442508 -0 36.28817 -0 -4.700565 -19.17821 -3.241515 -8.009058 11.23416 -24.25012 -0 4.007506 -0 8.278131 -15.25938 26.03641 -2.84437 -3.540243 5.888015 1.985263 10.8055 -7.078673 2.555223 22.03119 4.739126 2.265192 -25.19695 9.541147 6.049981 -20.69512 10.57502 86.30066 35.62926 -19.75341 -0 0 16.68417 -4.815661 7.080943 2.218411 5.595881 -19.86017 -2.997693 -95.60459 27.32523 24.72937 0 0 -15.52887 11.11804 17.28485 3.557843
0.2708852 103.6729 1.313966 1.920662 -1.224571 0.2667687 1.972957 -13.06543 8.630536 -0 37.51738 -0 -4.389593 -18.34248 -3.643908 -7.677328 11.15569 -23.97162 -0 4.364159 -0 7.20104 -16.68384 26.10072 -2.929928 -3.572121 5.928098 1.94381 10.83668 -7.039716 2.585958 22.09281 4.694273 2.242854 -25.13794 9.548482 6.070208 -20.77881 10.56974 86.2461 35.67455 -19.64312 -0 0 16.80105 -4.764238 7.024272 2.192649 5.554578 -19.79472 -3.054118 -95.62727 27.37812 24.77431 0 0 -15.47416 11.1797 17.34512 3.515749
0.5248864 103.6655 3.048462 1.012905 -0.5549414 0.30025 3.313787 -18.16921 7.430783 -0 34.55796 -0 -5.75007 -14.89695 -3.074476 -7.03677 11.59008 -22.47389 -0 4.877137 -0 6.151828 -18.67417 24.96023 -2.167641 -3.07131 5.494313 2.284951 10.5545 -7.37181 2.245901 21.49038 5.319875 2.520967 -25.72964 9.594268 5.768808 -19.97188 10.66587 87.08615 35.89585 -20.75341 -0 0 15.18734 -5.412198 7.656885 2.694517 5.89582 -20.42506 -2.777202 -94.61905 26.78735 23.6798 0 0 -17.39045 10.97667 16.08321 3.695415
0.7704912 103.6134 4.978549 0.2924986 0.5762172 0.3298158 4.647275 -22.04215 7.928373 -0 33.20615 -0 -5.883854 -13.1236 -3.094858 -6.622645 11.5766 -21.86033 -0 5.146616 -0 5.425036 -20.19922 24.61228 -2.004807 -3.02507 5.475051 2.263499 10.53121 -7.384142 2.235955 21.44811 5.320532 2.56509 -25.71738 9.533493 5.742673 -19.85121 10.61573 87.20634 35.82362 -20.98034 -0 0 15.02737 -5.464743 7.706152 2.651226 5.947999 -20.54007 -2.821341 -94.7203 27.0706 23.77335 0 0 -17.59064 10.60105 16.0926 4.186738
1.024124 103.3901 7.21734 -0.2971102 1.587507 0.3927314 5.770746 -26.13071 7.857504 -0 30.18206 -0 -6.144776 -11.02545 -2.774694 -6.298499 11.6839 -21.0399 -0 5.407389 -0 5.208804 -21.49113 24.05966 -1.817524 -2.925747 5.39711 2.30748 10.48238 -7.445272 2.176 21.33661 5.418437 2.625248 -25.79406 9.50943 5.686289 -19.67021 10.61569 87.3992 35.82067 -21.25832 -0 0 14.70316 -5.61165 7.841366 2.722144 6.019362 -20.68963 -2.794511 -94.5924 27.08441 23.62852 0 0 -17.97041 10.39864 15.89234 4.430274
1.289044 102.9938 9.782935 -0.8037718 2.550944 0.5190767 6.755992 -29.79704 7.810191 -0 26.83755 -0 -6.257657 -9.1305 -2.44493 -6.020877 11.8545 -20.33875 -0 5.801293 -0 4.882876 -22.63716 23.40041 -1.714723 -2.889207 5.378996 2.297728 10.46528 -7.456509 2.16355 21.30629 5.431775 2.654954 -25.79048 9.475735 5.666201 -19.58933 10.59039 87.48794 35.79093 -21.40723 -0 0 14.58416 -5.659414 7.883887 2.710568 6.051071 -20.76386 -2.81879 -94.62605 27.24261 23.65939 0 0 -18.1316 10.17328 15.87101 4.726246
1.564089 102.4352 12.74894 -1.223204 3.393897 0.752753 7.520598 -32.97962 7.529036 -0 23.00311 -0 -6.352398 -7.255364 -2.032492 -5.784485 12.22654 -19.58222 -0 6.548164 -0 4.453096 -23.51425 22.45795 -1.599895 -2.821967 5.329066 2.321825 10.43651 -7.493509 2.124685 21.23818 5.498144 2.693439 -25.83429 9.46307 5.628361 -19.47651 10.59236 87.62114 35.80731 -21.58476 -0 0 14.36983 -5.762138 7.975135 2.763832 6.0926 -20.85728 -2.810237 -94.52278 27.25111 23.54992 0 0 -18.40721 10.05161 15.72821 4.880499
1.84273 101.7766 16.20244 -1.588311 4.065718 1.138059 8.053159 -35.37101 7.052574 -0 19.10418 -0 -6.450106 -5.455297 -1.640279 -5.5476 12.86006 -18.73508 -0 7.923439 -0 3.625103 -24.01702 21.07845 -1.467228 -2.734874 5.263989 2.354292 10.4025 -7.540897 2.073979 21.15235 5.588747 2.740288 -25.89188 9.454661 5.579122 -19.34042 10.60143 87.79263 35.84845 -21.7979 -0 0 14.09461 -5.899747 8.095148 2.844888 6.141047 -20.96927 -2.800062 -94.35713 27.22742 23.37875 0 0 -18.77666 9.93969 15.52591 5.026306
2.114625 101.1397 20.24691 -1.930902 4.523394 1.703026 8.379168 -36.60804 6.45465 -0 15.66621 -0 -6.588062 -3.813132 -1.367448 -5.271724 13.76091 -17.7343 -0 10.30235 -0 2.186216 -23.88981 19.11672 -1.276748 -2.598541 5.156838 2.416032 10.35274 -7.622133 1.989895 21.01358 5.739235 2.808706 -25.9892 9.449534 5.502549 -19.13295 10.62976 88.0585 35.92166 -22.11427 -0 0 13.66242 -6.132034 8.29487 2.994768 6.212414 -21.13719 -2.769721 -94.05234 27.11184 23.063 0 0 -19.34393 9.82967 15.18218 5.162098
2.369899 100.7014 24.97823 -2.291503 4.736107 2.425403 8.597487 -36.31127 5.911134 -0 13.39765 -0 -6.824096 -2.493372 -1.314447 -4.904896 14.76839 -16.53372 -0 14.13647 -0 -0.01798563 -22.74171 16.50416 -1.005663 -2.408759 5.008407 2.496345 10.29022 -7.73817 1.872588 20.82284 5.941579 2.902455 -26.10355 9.429174 5.398403 -18.83708 10.67015 88.44168 36.00273 -22.57316 -0 0 13.06066 -6.485174 8.591156 3.20804 6.309145 -21.37852 -2.731299 -93.63367 26.964 22.62744 0 0 -20.12268 9.629675 14.71131 5.403093
2.608638 100.657 30.43103 -2.71045 4.713544 3.189391 8.865638 -34.29086 5.651513 -0 12.98241 -0 -7.25756 -1.742461 -1.483429 -4.391492 15.40125 -15.13952 -0 19.85628 -0 -2.855823 -20.10473 13.42666 -0.6354123 -2.160848 4.819756 2.587847 10.22294 -7.893624 1.718077 20.58241 6.18824 3.020319 -26.20591 9.371262 5.269356 -18.43604 10.72415 88.96316 36.05836 -23.2066 -0 0 12.28356 -7.008252 9.015357 3.493151 6.42679 -21.70754 -2.685257 -93.11879 26.81196 22.09082 0 0 -21.09074 9.250832 14.12311 5.848572
2.852835 101.13 36.49882 -3.187119 4.501653 3.770105 9.267933 -30.7782 5.76618 -0 14.49515 -0 -7.980937 -1.837945 -1.661957 -3.709093 14.77802 -13.64496 -0 27.65006 -0 -5.73696 -15.76172 10.45648 -0.1792825 -1.869446 4.617733 2.667751 10.17207 -8.074526 1.532378 20.32843 6.443804 3.144947 -26.23594 9.245733 5.134271 -17.95055 10.79294 89.59242 36.03972 -23.97929 -0 0 11.41254 -7.732049 9.574533 3.843288 6.53511 -22.10298 -2.632719 -92.59441 26.71581 21.55455 0 0 -22.092 8.587399 13.48935 6.613592
3.146346 102.0802 42.8803 -3.581115 4.092654 3.913803 9.62757 -26.32096 5.999082 -0 16.70069 -0 -8.859292 -2.952865 -1.477552 -2.974498 11.91175 -12.21008 -0 37.18477 -0 -7.773347 -10.3478 8.404529 0.298844 -1.56425 4.454811 2.713875 10.16489 -8.245254 1.324073 20.12889 6.658352 3.242134 -26.13029 9.027714 5.025459 -17.44896 10.88731 90.21449 35.90943 -24.73939 -0 0 10.61384 -8.649514 10.23182 4.256668 6.569965 -22.48987 -2.559846 -92.19144 26.70823 21.18426 0 0 -22.83021 7.593025 12.90495 7.724009
3.521381 103.3437 49.16367 -3.521017 3.258457 3.52555 9.434245 -21.12204 5.802466 -0 17.31522 -0 -9.347703 -4.902151 -0.8357281 -2.550966 6.613506 -10.92615 -0 47.42058 -0 -8.364729 -5.671917 7.822956 0.6801643 -1.284438 4.40194 2.715106 10.21918 -8.342707 1.101593 20.07417 6.781141 3.271796 -25.85764 8.7108 4.975468 -17.04371 11.02107 90.61879 35.67914 -25.20573 -0 0 10.0955 -9.682102 10.87169 4.744687 6.44194 -22.7416 -2.4528 -92.05031 26.79149 21.17336 0 0 -22.96638 6.339685 12.4375 9.051824
3.941361 104.8078 55.08434 -2.617417 1.638446 2.81756 8.23667 -14.85895 4.866942 -0 15.21477 -0 -9.029147 -6.958626 -0.3072435 -2.788546 0.2422062 -9.730637 -0 56.53003 -0 -7.690358 -3.693122 8.569928 0.827736 -1.063034 4.511767 2.675886 10.32532 -8.296692 0.8656262 20.23795 6.795003 3.210846 -25.44064 8.318511 4.988059 -16.84371 11.19879 90.58931 35.44014 -25.07586 -0 0 9.982211 -10.7368 11.33762 5.357498 6.079425 -22.73952 -2.329405 -92.20664 26.93951 21.60753 0 0 -22.36807 5.024193 12.04869 10.33085
